<mxfile host="Electron" agent="Mozilla/5.0 (Windows NT 10.0; Win64; x64) AppleWebKit/537.36 (KHTML, like Gecko) draw.io/25.0.2 Chrome/128.0.6613.186 Electron/32.2.5 Safari/537.36" version="25.0.2">
  <diagram name="Page-1" id="nn-GTaVTfglbPwuZlIaL">
    <mxGraphModel dx="695" dy="644" grid="1" gridSize="10" guides="1" tooltips="1" connect="1" arrows="1" fold="1" page="1" pageScale="1" pageWidth="827" pageHeight="1169" math="0" shadow="0">
      <root>
        <mxCell id="0" />
        <mxCell id="1" parent="0" />
        <mxCell id="T51e3UF8cOhuX256e3ew-1" value="" style="rounded=0;whiteSpace=wrap;html=1;" vertex="1" parent="1">
          <mxGeometry x="80" y="200" width="730" height="80" as="geometry" />
        </mxCell>
        <mxCell id="T51e3UF8cOhuX256e3ew-2" value="&lt;b&gt;&lt;font style=&quot;font-size: 10px;&quot;&gt;Device&lt;/font&gt;&lt;/b&gt;" style="rounded=0;whiteSpace=wrap;html=1;align=left;" vertex="1" parent="1">
          <mxGeometry x="80" y="180" width="100" height="40" as="geometry" />
        </mxCell>
        <mxCell id="T51e3UF8cOhuX256e3ew-3" value="&lt;b&gt;&lt;font style=&quot;font-size: 10px;&quot;&gt;CPU&lt;/font&gt;&lt;/b&gt;" style="rounded=0;whiteSpace=wrap;html=1;align=left;" vertex="1" parent="1">
          <mxGeometry x="80" y="220" width="100" height="20" as="geometry" />
        </mxCell>
        <mxCell id="T51e3UF8cOhuX256e3ew-4" value="&lt;b&gt;&lt;font style=&quot;font-size: 10px;&quot;&gt;GPU&lt;/font&gt;&lt;/b&gt;" style="rounded=0;whiteSpace=wrap;html=1;align=left;" vertex="1" parent="1">
          <mxGeometry x="80" y="240" width="100" height="20" as="geometry" />
        </mxCell>
        <mxCell id="T51e3UF8cOhuX256e3ew-5" value="&lt;b&gt;&lt;font style=&quot;font-size: 9px;&quot;&gt;Display&lt;/font&gt;&lt;/b&gt;" style="rounded=0;whiteSpace=wrap;html=1;align=left;" vertex="1" parent="1">
          <mxGeometry x="80" y="260" width="100" height="20" as="geometry" />
        </mxCell>
        <mxCell id="T51e3UF8cOhuX256e3ew-6" value="&lt;b&gt;&lt;font style=&quot;font-size: 10px;&quot;&gt;Time&lt;/font&gt;&lt;/b&gt;" style="rounded=0;whiteSpace=wrap;html=1;align=left;" vertex="1" parent="1">
          <mxGeometry x="180" y="180" width="630" height="40" as="geometry" />
        </mxCell>
        <mxCell id="T51e3UF8cOhuX256e3ew-7" value="&lt;b&gt;&lt;font style=&quot;font-size: 10px;&quot;&gt;updateGame&lt;/font&gt;&lt;/b&gt;" style="rounded=0;whiteSpace=wrap;html=1;fillColor=#9999FF;opacity=50;align=left;" vertex="1" parent="1">
          <mxGeometry x="180" y="220" width="70" height="20" as="geometry" />
        </mxCell>
        <mxCell id="T51e3UF8cOhuX256e3ew-8" value="&lt;b&gt;&lt;font style=&quot;font-size: 10px;&quot;&gt;createCL[0]&lt;/font&gt;&lt;/b&gt;" style="rounded=0;whiteSpace=wrap;html=1;fillColor=#FF9999;opacity=50;align=left;" vertex="1" parent="1">
          <mxGeometry x="250" y="220" width="70" height="20" as="geometry" />
        </mxCell>
        <mxCell id="T51e3UF8cOhuX256e3ew-14" value="&lt;span style=&quot;font-size: 10px;&quot;&gt;&lt;b&gt;idle&lt;/b&gt;&lt;/span&gt;" style="rounded=0;whiteSpace=wrap;html=1;fillColor=#66FF66;opacity=50;align=left;" vertex="1" parent="1">
          <mxGeometry x="320" y="220" width="70" height="20" as="geometry" />
        </mxCell>
        <mxCell id="T51e3UF8cOhuX256e3ew-16" value="&lt;b&gt;&lt;font style=&quot;font-size: 10px;&quot;&gt;updateGame&lt;/font&gt;&lt;/b&gt;" style="rounded=0;whiteSpace=wrap;html=1;fillColor=#9999FF;opacity=50;align=left;" vertex="1" parent="1">
          <mxGeometry x="390" y="220" width="70" height="20" as="geometry" />
        </mxCell>
        <mxCell id="T51e3UF8cOhuX256e3ew-17" value="&lt;b&gt;&lt;font style=&quot;font-size: 10px;&quot;&gt;createCL[1]&lt;/font&gt;&lt;/b&gt;" style="rounded=0;whiteSpace=wrap;html=1;fillColor=#E1D5E7;opacity=50;align=left;" vertex="1" parent="1">
          <mxGeometry x="460" y="220" width="70" height="20" as="geometry" />
        </mxCell>
        <mxCell id="T51e3UF8cOhuX256e3ew-18" value="&lt;span style=&quot;font-size: 10px;&quot;&gt;&lt;b&gt;idle&lt;/b&gt;&lt;/span&gt;" style="rounded=0;whiteSpace=wrap;html=1;fillColor=#66FF66;opacity=50;align=left;" vertex="1" parent="1">
          <mxGeometry x="530" y="220" width="70" height="20" as="geometry" />
        </mxCell>
        <mxCell id="T51e3UF8cOhuX256e3ew-19" value="&lt;b&gt;&lt;font style=&quot;font-size: 10px;&quot;&gt;updateGame&lt;/font&gt;&lt;/b&gt;" style="rounded=0;whiteSpace=wrap;html=1;fillColor=#9999FF;opacity=50;align=left;" vertex="1" parent="1">
          <mxGeometry x="600" y="220" width="70" height="20" as="geometry" />
        </mxCell>
        <mxCell id="T51e3UF8cOhuX256e3ew-20" value="&lt;b&gt;&lt;font style=&quot;font-size: 10px;&quot;&gt;createCL[0]&lt;/font&gt;&lt;/b&gt;" style="rounded=0;whiteSpace=wrap;html=1;fillColor=#FF9999;opacity=50;align=left;" vertex="1" parent="1">
          <mxGeometry x="670" y="220" width="70" height="20" as="geometry" />
        </mxCell>
        <mxCell id="T51e3UF8cOhuX256e3ew-21" value="&lt;span style=&quot;font-size: 10px;&quot;&gt;&lt;b&gt;idle&lt;/b&gt;&lt;/span&gt;" style="rounded=0;whiteSpace=wrap;html=1;fillColor=#66FF66;opacity=50;align=left;" vertex="1" parent="1">
          <mxGeometry x="740" y="220" width="70" height="20" as="geometry" />
        </mxCell>
        <mxCell id="T51e3UF8cOhuX256e3ew-22" value="&lt;b&gt;&lt;font style=&quot;font-size: 10px;&quot;&gt;Render Frame [0]&lt;/font&gt;&lt;/b&gt;" style="rounded=0;whiteSpace=wrap;html=1;fillColor=#FF9999;opacity=50;align=left;" vertex="1" parent="1">
          <mxGeometry x="390" y="240" width="210" height="20" as="geometry" />
        </mxCell>
        <mxCell id="T51e3UF8cOhuX256e3ew-23" value="&lt;b&gt;&lt;font style=&quot;font-size: 10px;&quot;&gt;Show Frame[0]&lt;/font&gt;&lt;/b&gt;" style="rounded=0;whiteSpace=wrap;html=1;fillColor=#FF9999;opacity=50;align=left;" vertex="1" parent="1">
          <mxGeometry x="600" y="260" width="210" height="20" as="geometry" />
        </mxCell>
        <mxCell id="T51e3UF8cOhuX256e3ew-24" value="&lt;b&gt;&lt;font style=&quot;font-size: 10px;&quot;&gt;Render Frame [1]&lt;/font&gt;&lt;/b&gt;" style="rounded=0;whiteSpace=wrap;html=1;fillColor=#E1D5E7;opacity=50;align=left;" vertex="1" parent="1">
          <mxGeometry x="600" y="240" width="210" height="20" as="geometry" />
        </mxCell>
        <mxCell id="T51e3UF8cOhuX256e3ew-25" value="" style="rounded=0;whiteSpace=wrap;html=1;fillColor=none;align=left;" vertex="1" parent="1">
          <mxGeometry x="390" y="260" width="210" height="20" as="geometry" />
        </mxCell>
        <mxCell id="T51e3UF8cOhuX256e3ew-26" value="" style="rounded=0;whiteSpace=wrap;html=1;fillColor=none;align=left;" vertex="1" parent="1">
          <mxGeometry x="180" y="240" width="210" height="20" as="geometry" />
        </mxCell>
        <mxCell id="T51e3UF8cOhuX256e3ew-27" value="" style="rounded=0;whiteSpace=wrap;html=1;fillColor=none;align=left;" vertex="1" parent="1">
          <mxGeometry x="180" y="260" width="210" height="20" as="geometry" />
        </mxCell>
        <mxCell id="T51e3UF8cOhuX256e3ew-29" value="Vsync" style="text;html=1;align=center;verticalAlign=middle;resizable=0;points=[];autosize=1;strokeColor=none;fillColor=none;fontStyle=1;spacing=-2;spacingTop=20;" vertex="1" parent="1">
          <mxGeometry x="365" y="165" width="50" height="40" as="geometry" />
        </mxCell>
        <mxCell id="T51e3UF8cOhuX256e3ew-31" value="" style="endArrow=classic;html=1;rounded=0;entryX=1;entryY=0.5;entryDx=0;entryDy=0;exitX=0.586;exitY=-0.003;exitDx=0;exitDy=0;exitPerimeter=0;strokeWidth=3;" edge="1" parent="1" source="T51e3UF8cOhuX256e3ew-26" target="T51e3UF8cOhuX256e3ew-26">
          <mxGeometry width="50" height="50" relative="1" as="geometry">
            <mxPoint x="320" y="370" as="sourcePoint" />
            <mxPoint x="370" y="320" as="targetPoint" />
            <Array as="points">
              <mxPoint x="303" y="250" />
            </Array>
          </mxGeometry>
        </mxCell>
        <mxCell id="T51e3UF8cOhuX256e3ew-35" value="" style="endArrow=classic;html=1;rounded=0;entryX=1;entryY=0.5;entryDx=0;entryDy=0;exitX=0.586;exitY=-0.003;exitDx=0;exitDy=0;exitPerimeter=0;strokeWidth=3;" edge="1" parent="1">
          <mxGeometry width="50" height="50" relative="1" as="geometry">
            <mxPoint x="513" y="240" as="sourcePoint" />
            <mxPoint x="600" y="250" as="targetPoint" />
            <Array as="points">
              <mxPoint x="513" y="250" />
            </Array>
          </mxGeometry>
        </mxCell>
        <mxCell id="T51e3UF8cOhuX256e3ew-36" value="" style="endArrow=classic;html=1;rounded=0;entryX=1;entryY=0.5;entryDx=0;entryDy=0;exitX=0.586;exitY=-0.003;exitDx=0;exitDy=0;exitPerimeter=0;strokeWidth=3;" edge="1" parent="1">
          <mxGeometry width="50" height="50" relative="1" as="geometry">
            <mxPoint x="723" y="240" as="sourcePoint" />
            <mxPoint x="810" y="250" as="targetPoint" />
            <Array as="points">
              <mxPoint x="723" y="250" />
            </Array>
          </mxGeometry>
        </mxCell>
        <mxCell id="T51e3UF8cOhuX256e3ew-37" value="" style="endArrow=classic;html=1;rounded=0;entryX=1;entryY=0.5;entryDx=0;entryDy=0;strokeWidth=3;" edge="1" parent="1" target="T51e3UF8cOhuX256e3ew-25">
          <mxGeometry width="50" height="50" relative="1" as="geometry">
            <mxPoint x="550" y="260" as="sourcePoint" />
            <mxPoint x="580" y="280" as="targetPoint" />
            <Array as="points">
              <mxPoint x="550" y="270" />
            </Array>
          </mxGeometry>
        </mxCell>
        <mxCell id="T51e3UF8cOhuX256e3ew-38" value="" style="endArrow=classic;html=1;rounded=0;entryX=1;entryY=0.5;entryDx=0;entryDy=0;strokeWidth=3;" edge="1" parent="1">
          <mxGeometry width="50" height="50" relative="1" as="geometry">
            <mxPoint x="760" y="260" as="sourcePoint" />
            <mxPoint x="810" y="270" as="targetPoint" />
            <Array as="points">
              <mxPoint x="760" y="270" />
            </Array>
          </mxGeometry>
        </mxCell>
        <mxCell id="T51e3UF8cOhuX256e3ew-39" value="" style="endArrow=classic;html=1;rounded=0;entryX=1;entryY=0;entryDx=0;entryDy=0;" edge="1" parent="1" source="T51e3UF8cOhuX256e3ew-29" target="T51e3UF8cOhuX256e3ew-14">
          <mxGeometry width="50" height="50" relative="1" as="geometry">
            <mxPoint x="460" y="250" as="sourcePoint" />
            <mxPoint x="510" y="200" as="targetPoint" />
          </mxGeometry>
        </mxCell>
        <mxCell id="T51e3UF8cOhuX256e3ew-41" value="Vsync" style="text;html=1;align=center;verticalAlign=middle;resizable=0;points=[];autosize=1;strokeColor=none;fillColor=none;fontStyle=1;spacing=-6;spacingTop=20;" vertex="1" parent="1">
          <mxGeometry x="580" y="170" width="40" height="30" as="geometry" />
        </mxCell>
        <mxCell id="T51e3UF8cOhuX256e3ew-42" value="" style="endArrow=classic;html=1;rounded=0;entryX=1;entryY=0;entryDx=0;entryDy=0;" edge="1" parent="1">
          <mxGeometry width="50" height="50" relative="1" as="geometry">
            <mxPoint x="600" y="205" as="sourcePoint" />
            <mxPoint x="600" y="220" as="targetPoint" />
          </mxGeometry>
        </mxCell>
      </root>
    </mxGraphModel>
  </diagram>
</mxfile>
